# xmcd
#
# Track frame offsets: 
#        150
#        15450
#        32212
#        49142
#        66666
#        81868
#        101901
#        119325
#        138738
#        155213
#        171655
#        189290
#        207062
#        218432
#        232204
#        246944
#        265697
#        283066
#        298596
#        315390
#
# Disc length: 4468 seconds
#
# Revision: 7
# Processed by: cddbd v1.5.2PL0 Copyright (c) Steve Scherf et al.
# Submitted via: ExactAudioCopy v1.0b1
#
DISCID=37117214
DTITLE=Various Artist - Italy In Love [CD1) - Torna A Sorridere
DYEAR=2009
DGENRE=Easy Listening
TTITLE0=Ricardo Fogli - Torna A Sorridere
TTITLE1=Meccano - Un Amore Per Vincere
TTITLE2=Enzo Belmonte - Se Ritornerai
TTITLE3=Marco Silenzi - Qui Mi Mancha Il Mare
TTITLE4=I Santo California - Maledetto Cuore
TTITLE5=Gazebo - Attimi Diversi
TTITLE6=Angelo Fabiani - Canzoni
TTITLE7=Amedeo Minghi - La Ragione L'amore
TTITLE8=Lucio Dalla and Edoarda De Angelis - Sulla Rotta Di Cristofer Co
TTITLE8=lombo
TTITLE9=Mario Castelnuovo - Nudo Amore
TTITLE10=Flavia Fortunate - L'amore E
TTITLE11=Andrea Minghi - Tu Sei Comoio Volevoi
TTITLE12=Beppe Di Francia - Una Storia Da Raccontare
TTITLE13=Christiano Malgioglio - Occhio Al Porto
TTITLE14=Stella Carnacina - Rossa Sera
TTITLE15=Paolo Riviera - Cavallo Biano
TTITLE16=Eduardo De Crescenzo - Ancora
TTITLE17=Amanda Lear - Due
TTITLE18=Vita Che Corri - Capobianco
TTITLE19=Enzo Melotti - Piu Bella Cosa
EXTD=
EXTT0=
EXTT1=
EXTT2=
EXTT3=
EXTT4=
EXTT5=
EXTT6=
EXTT7=
EXTT8=
EXTT9=
EXTT10=
EXTT11=
EXTT12=
EXTT13=
EXTT14=
EXTT15=
EXTT16=
EXTT17=
EXTT18=
EXTT19=
PLAYORDER=
